<mxfile host="65bd71144e">
    <diagram name="智能体记忆系统架构" id="memory-system-architecture">
        <mxGraphModel dx="1969" dy="987" grid="0" gridSize="10" guides="1" tooltips="1" connect="1" arrows="1" fold="1" page="1" pageScale="1" pageWidth="1654" pageHeight="1169" math="0" shadow="0">
            <root>
                <mxCell id="0"/>
                <mxCell id="1" parent="0"/>
                <mxCell id="input_layer" value="外部世界交互" style="rounded=1;whiteSpace=wrap;html=1;fillColor=#e1d5e7;strokeColor=#9673a6;fontSize=14;fontStyle=1;" parent="1" vertex="1">
                    <mxGeometry x="80" y="100" width="1494" height="60" as="geometry"/>
                </mxCell>
                <mxCell id="layer1_bg" value="" style="rounded=1;whiteSpace=wrap;html=1;fillColor=#fff2cc;strokeColor=#d6b656;opacity=30;" parent="1" vertex="1">
                    <mxGeometry x="80" y="200" width="1494" height="120" as="geometry"/>
                </mxCell>
                <mxCell id="layer1_title" value="第一层：感知缓冲/瞬时记忆 (Sensory Buffer / Transient Memory)" style="text;html=1;strokeColor=none;fillColor=none;align=left;verticalAlign=top;whiteSpace=wrap;rounded=0;fontSize=16;fontStyle=1;fontColor=#bf6900;" parent="1" vertex="1">
                    <mxGeometry x="100" y="210" width="600" height="30" as="geometry"/>
                </mxCell>
                <mxCell id="sensory_text" value="文字输入&#xa;缓冲区" style="rounded=1;whiteSpace=wrap;html=1;fillColor=#fff2cc;strokeColor=#d6b656;" parent="1" vertex="1">
                    <mxGeometry x="120" y="250" width="100" height="60" as="geometry"/>
                </mxCell>
                <mxCell id="sensory_image" value="图像输入&#xa;缓冲区" style="rounded=1;whiteSpace=wrap;html=1;fillColor=#fff2cc;strokeColor=#d6b656;" parent="1" vertex="1">
                    <mxGeometry x="240" y="250" width="100" height="60" as="geometry"/>
                </mxCell>
                <mxCell id="sensory_api" value="API调用&#xa;记录缓冲" style="rounded=1;whiteSpace=wrap;html=1;fillColor=#fff2cc;strokeColor=#d6b656;" parent="1" vertex="1">
                    <mxGeometry x="360" y="250" width="100" height="60" as="geometry"/>
                </mxCell>
                <mxCell id="sensory_audio" value="声音输入&#xa;缓冲区" style="rounded=1;whiteSpace=wrap;html=1;fillColor=#fff2cc;strokeColor=#d6b656;" parent="1" vertex="1">
                    <mxGeometry x="480" y="250" width="100" height="60" as="geometry"/>
                </mxCell>
                <mxCell id="layer1_features" value="特征：&#xa;• 高通量，海量数据&#xa;• 易失性 (秒/分钟级)&#xa;• 无结构，原始数据&#xa;• 类似计算机RAM" style="text;html=1;strokeColor=none;fillColor=none;align=left;verticalAlign=top;whiteSpace=wrap;rounded=0;fontSize=12;fontColor=#bf6900;" parent="1" vertex="1">
                    <mxGeometry x="1200" y="220" width="350" height="70" as="geometry"/>
                </mxCell>
                <mxCell id="layer2_bg" value="" style="rounded=1;whiteSpace=wrap;html=1;fillColor=#d5e8d4;strokeColor=#82b366;opacity=30;" parent="1" vertex="1">
                    <mxGeometry x="80" y="360" width="1494" height="120" as="geometry"/>
                </mxCell>
                <mxCell id="layer2_title" value="第二层：工作记忆/短期上下文 (Working Memory / Short-Term Context)" style="text;html=1;strokeColor=none;fillColor=none;align=left;verticalAlign=top;whiteSpace=wrap;rounded=0;fontSize=16;fontStyle=1;fontColor=#2d7600;" parent="1" vertex="1">
                    <mxGeometry x="100" y="370" width="600" height="30" as="geometry"/>
                </mxCell>
                <mxCell id="working_context" value="当前任务&#xa;上下文" style="rounded=1;whiteSpace=wrap;html=1;fillColor=#d5e8d4;strokeColor=#82b366;" parent="1" vertex="1">
                    <mxGeometry x="120" y="410" width="120" height="60" as="geometry"/>
                </mxCell>
                <mxCell id="working_entities" value="识别实体&#xa;与意图" style="rounded=1;whiteSpace=wrap;html=1;fillColor=#d5e8d4;strokeColor=#82b366;" parent="1" vertex="1">
                    <mxGeometry x="260" y="410" width="120" height="60" as="geometry"/>
                </mxCell>
                <mxCell id="working_goals" value="当前目标&#xa;与状态" style="rounded=1;whiteSpace=wrap;html=1;fillColor=#d5e8d4;strokeColor=#82b366;" parent="1" vertex="1">
                    <mxGeometry x="400" y="410" width="120" height="60" as="geometry"/>
                </mxCell>
                <mxCell id="working_llm" value="LLM上下文&#xa;窗口" style="rounded=1;whiteSpace=wrap;html=1;fillColor=#d5e8d4;strokeColor=#82b366;" parent="1" vertex="1">
                    <mxGeometry x="540" y="410" width="120" height="60" as="geometry"/>
                </mxCell>
                <mxCell id="layer2_features" value="特征：&#xa;• 任务导向，与当前任务相关&#xa;• 高速读写，支持实时推理&#xa;• 结构化数据&#xa;• 容量有限，动态调整" style="text;html=1;strokeColor=none;fillColor=none;align=left;verticalAlign=top;whiteSpace=wrap;rounded=0;fontSize=12;fontColor=#2d7600;" parent="1" vertex="1">
                    <mxGeometry x="1200" y="380" width="350" height="70" as="geometry"/>
                </mxCell>
                <mxCell id="layer3_bg" value="" style="rounded=1;whiteSpace=wrap;html=1;fillColor=#f8cecc;strokeColor=#b85450;opacity=20;" parent="1" vertex="1">
                    <mxGeometry x="80" y="520" width="1494" height="439" as="geometry"/>
                </mxCell>
                <mxCell id="layer3_title" value="第三层：长期记忆 (Long-Term Memory - LTM) - 永久存活的基石" style="text;html=1;strokeColor=none;fillColor=none;align=left;verticalAlign=top;whiteSpace=wrap;rounded=0;fontSize=16;fontStyle=1;fontColor=#a50040;" parent="1" vertex="1">
                    <mxGeometry x="100" y="530" width="600" height="30" as="geometry"/>
                </mxCell>
                <mxCell id="episodic_memory" value="" style="rounded=1;whiteSpace=wrap;html=1;fillColor=#ffe6cc;strokeColor=#d79b00;" parent="1" vertex="1">
                    <mxGeometry x="120" y="580" width="320" height="160" as="geometry"/>
                </mxCell>
                <mxCell id="episodic_title" value="情节记忆 (Episodic Memory)&#xa;&quot;我经历了什么？&quot;" style="text;html=1;strokeColor=none;fillColor=none;align=center;verticalAlign=top;whiteSpace=wrap;rounded=0;fontSize=14;fontStyle=1;fontColor=#d79b00;" parent="1" vertex="1">
                    <mxGeometry x="130" y="590" width="300" height="40" as="geometry"/>
                </mxCell>
                <mxCell id="episodic_content" value="• 带时间戳的具体事件&#xa;• 用户对话记录&#xa;• 任务执行经历&#xa;• 错误和成功案例&#xa;&#xa;技术实现：向量数据库&#xa;支持语义相似性检索" style="text;html=1;strokeColor=none;fillColor=none;align=left;verticalAlign=top;whiteSpace=wrap;rounded=0;fontSize=11;fontColor=#d79b00;" parent="1" vertex="1">
                    <mxGeometry x="140" y="630" width="280" height="100" as="geometry"/>
                </mxCell>
                <mxCell id="semantic_memory" value="" style="rounded=1;whiteSpace=wrap;html=1;fillColor=#e1d5e7;strokeColor=#9673a6;" parent="1" vertex="1">
                    <mxGeometry x="460" y="580" width="320" height="160" as="geometry"/>
                </mxCell>
                <mxCell id="semantic_title" value="语义记忆 (Semantic Memory)&#xa;&quot;我知道什么？&quot;" style="text;html=1;strokeColor=none;fillColor=none;align=center;verticalAlign=top;whiteSpace=wrap;rounded=0;fontSize=14;fontStyle=1;fontColor=#9673a6;" parent="1" vertex="1">
                    <mxGeometry x="470" y="590" width="300" height="40" as="geometry"/>
                </mxCell>
                <mxCell id="semantic_content" value="• 抽象事实和概念&#xa;• 实体关系网络&#xa;• 用户兴趣偏好&#xa;• 领域知识体系&#xa;&#xa;技术实现：知识图谱&#xa;支持逻辑推理和关系发现" style="text;html=1;strokeColor=none;fillColor=none;align=left;verticalAlign=top;whiteSpace=wrap;rounded=0;fontSize=11;fontColor=#9673a6;" parent="1" vertex="1">
                    <mxGeometry x="480" y="630" width="280" height="100" as="geometry"/>
                </mxCell>
                <mxCell id="procedural_memory" value="" style="rounded=1;whiteSpace=wrap;html=1;fillColor=#dae8fc;strokeColor=#6c8ebf;" parent="1" vertex="1">
                    <mxGeometry x="800" y="580" width="320" height="160" as="geometry"/>
                </mxCell>
                <mxCell id="procedural_title" value="程序记忆 (Procedural Memory)&#xa;&quot;我该怎么做？&quot;" style="text;html=1;strokeColor=none;fillColor=none;align=center;verticalAlign=top;whiteSpace=wrap;rounded=0;fontSize=14;fontStyle=1;fontColor=#6c8ebf;" parent="1" vertex="1">
                    <mxGeometry x="810" y="590" width="300" height="40" as="geometry"/>
                </mxCell>
                <mxCell id="procedural_content" value="• 技能和策略库&#xa;• API调用流程&#xa;• 代码调试方法&#xa;• 标准作业程序&#xa;&#xa;技术实现：函数库&#xa;可执行代码片段和SOP" style="text;html=1;strokeColor=none;fillColor=none;align=left;verticalAlign=top;whiteSpace=wrap;rounded=0;fontSize=11;fontColor=#6c8ebf;" parent="1" vertex="1">
                    <mxGeometry x="820" y="630" width="280" height="100" as="geometry"/>
                </mxCell>
                <mxCell id="core_identity" value="" style="rounded=1;whiteSpace=wrap;html=1;fillColor=#f8cecc;strokeColor=#b85450;" parent="1" vertex="1">
                    <mxGeometry x="1140" y="580" width="320" height="160" as="geometry"/>
                </mxCell>
                <mxCell id="core_title" value="核心身份/原则 (Core Identity)&#xa;&quot;我是谁？&quot;" style="text;html=1;strokeColor=none;fillColor=none;align=center;verticalAlign=top;whiteSpace=wrap;rounded=0;fontSize=14;fontStyle=1;fontColor=#b85450;" parent="1" vertex="1">
                    <mxGeometry x="1150" y="590" width="300" height="40" as="geometry"/>
                </mxCell>
                <mxCell id="core_content" value="• 核心目标和价值观&#xa;• 行为准则和原则&#xa;• 个性特征定义&#xa;• 不可变核心指令&#xa;&#xa;技术实现：受保护配置&#xa;硬编码元指令" style="text;html=1;strokeColor=none;fillColor=none;align=left;verticalAlign=top;whiteSpace=wrap;rounded=0;fontSize=11;fontColor=#b85450;" parent="1" vertex="1">
                    <mxGeometry x="1160" y="630" width="280" height="100" as="geometry"/>
                </mxCell>
                <mxCell id="management_bg" value="" style="rounded=1;whiteSpace=wrap;html=1;fillColor=#f5f5f5;strokeColor=#666666;opacity=50;" parent="1" vertex="1">
                    <mxGeometry x="80" y="760" width="1494" height="200" as="geometry"/>
                </mxCell>
                <mxCell id="management_title" value="记忆流转与管理机制" style="text;html=1;strokeColor=none;fillColor=none;align=left;verticalAlign=top;whiteSpace=wrap;rounded=0;fontSize=16;fontStyle=1;fontColor=#333333;" parent="1" vertex="1">
                    <mxGeometry x="100" y="770" width="300" height="30" as="geometry"/>
                </mxCell>
                <mxCell id="encoding" value="记忆编码&#xa;(Encoding)" style="rounded=1;whiteSpace=wrap;html=1;fillColor=#e6f3ff;strokeColor=#4a90e2;fontSize=12;fontStyle=1;" parent="1" vertex="1">
                    <mxGeometry x="120" y="810" width="120" height="60" as="geometry"/>
                </mxCell>
                <mxCell id="encoding_detail" value="• 提炼与抽象&#xa;• 信息分类&#xa;• 格式化存储" style="text;html=1;strokeColor=none;fillColor=none;align=left;verticalAlign=top;whiteSpace=wrap;rounded=0;fontSize=10;" parent="1" vertex="1">
                    <mxGeometry x="120" y="880" width="120" height="50" as="geometry"/>
                </mxCell>
                <mxCell id="retrieval" value="记忆检索&#xa;(Retrieval)" style="rounded=1;whiteSpace=wrap;html=1;fillColor=#e6f3ff;strokeColor=#4a90e2;fontSize=12;fontStyle=1;" parent="1" vertex="1">
                    <mxGeometry x="280" y="810" width="120" height="60" as="geometry"/>
                </mxCell>
                <mxCell id="retrieval_detail" value="• 混合检索策略&#xa;• RRIF评分模型&#xa;• 重排与筛选" style="text;html=1;strokeColor=none;fillColor=none;align=left;verticalAlign=top;whiteSpace=wrap;rounded=0;fontSize=10;" parent="1" vertex="1">
                    <mxGeometry x="280" y="880" width="120" height="50" as="geometry"/>
                </mxCell>
                <mxCell id="consolidation" value="整合遗忘&#xa;(Consolidation)" style="rounded=1;whiteSpace=wrap;html=1;fillColor=#e6f3ff;strokeColor=#4a90e2;fontSize=12;fontStyle=1;" parent="1" vertex="1">
                    <mxGeometry x="440" y="810" width="120" height="60" as="geometry"/>
                </mxCell>
                <mxCell id="consolidation_detail" value="• 模式发现&#xa;• 知识强化&#xa;• 主动遗忘" style="text;html=1;strokeColor=none;fillColor=none;align=left;verticalAlign=top;whiteSpace=wrap;rounded=0;fontSize=10;" parent="1" vertex="1">
                    <mxGeometry x="440" y="880" width="120" height="50" as="geometry"/>
                </mxCell>
                <mxCell id="rrif_model" value="" style="rounded=1;whiteSpace=wrap;html=1;fillColor=#fff9e6;strokeColor=#ffa500;" parent="1" vertex="1">
                    <mxGeometry x="600" y="810" width="300" height="120" as="geometry"/>
                </mxCell>
                <mxCell id="rrif_title" value="RRIF 评分模型" style="text;html=1;strokeColor=none;fillColor=none;align=center;verticalAlign=top;whiteSpace=wrap;rounded=0;fontSize=14;fontStyle=1;fontColor=#ffa500;" parent="1" vertex="1">
                    <mxGeometry x="610" y="820" width="280" height="25" as="geometry"/>
                </mxCell>
                <mxCell id="rrif_content" value="• Relevance (相关性) - 与当前任务的关联度&#xa;• Recency (时效性) - 信息的新鲜程度&#xa;• Importance (重要性) - 信息的惊喜值&#xa;• Frequency (频率性) - 使用频次" style="text;html=1;strokeColor=none;fillColor=none;align=left;verticalAlign=top;whiteSpace=wrap;rounded=0;fontSize=11;fontColor=#ffa500;" parent="1" vertex="1">
                    <mxGeometry x="620" y="850" width="260" height="70" as="geometry"/>
                </mxCell>
                <mxCell id="unified_query" value="" style="rounded=1;whiteSpace=wrap;html=1;fillColor=#f0f8ff;strokeColor=#87ceeb;" parent="1" vertex="1">
                    <mxGeometry x="939" y="810" width="300" height="120" as="geometry"/>
                </mxCell>
                <mxCell id="unified_title" value="统一查询入口" style="text;html=1;strokeColor=none;fillColor=none;align=center;verticalAlign=top;whiteSpace=wrap;rounded=0;fontSize=14;fontStyle=1;fontColor=#4682b4;" parent="1" vertex="1">
                    <mxGeometry x="949" y="820" width="280" height="25" as="geometry"/>
                </mxCell>
                <mxCell id="unified_content" value="• 查询意图分解与路由&#xa;• 并行检索各记忆模块&#xa;• 结果合成与应答生成&#xa;• 门面模式，解耦思考与存储" style="text;html=1;strokeColor=none;fillColor=none;align=left;verticalAlign=top;whiteSpace=wrap;rounded=0;fontSize=11;fontColor=#4682b4;" parent="1" vertex="1">
                    <mxGeometry x="959" y="850" width="260" height="70" as="geometry"/>
                </mxCell>
                <mxCell id="meta_reflection" value="元认知反思与&#xa;知识升华" style="rounded=1;whiteSpace=wrap;html=1;fillColor=#ffebe6;strokeColor=#ff6b35;fontSize=12;fontStyle=1;" parent="1" vertex="1">
                    <mxGeometry x="1280" y="810" width="140" height="60" as="geometry"/>
                </mxCell>
                <mxCell id="meta_detail" value="• 主题聚类&#xa;• 跨记忆归纳&#xa;• 知识固化" style="text;html=1;strokeColor=none;fillColor=none;align=left;verticalAlign=top;whiteSpace=wrap;rounded=0;fontSize=10;" parent="1" vertex="1">
                    <mxGeometry x="1280" y="880" width="140" height="50" as="geometry"/>
                </mxCell>
                <mxCell id="flow1" value="" style="endArrow=classic;html=1;rounded=0;strokeWidth=2;strokeColor=#666666;" parent="1" edge="1">
                    <mxGeometry width="50" height="50" relative="1" as="geometry">
                        <mxPoint x="827" y="160" as="sourcePoint"/>
                        <mxPoint x="827" y="200" as="targetPoint"/>
                    </mxGeometry>
                </mxCell>
                <mxCell id="flow2" value="" style="endArrow=classic;html=1;rounded=0;strokeWidth=2;strokeColor=#666666;" parent="1" edge="1">
                    <mxGeometry width="50" height="50" relative="1" as="geometry">
                        <mxPoint x="400" y="320" as="sourcePoint"/>
                        <mxPoint x="400" y="360" as="targetPoint"/>
                    </mxGeometry>
                </mxCell>
                <mxCell id="flow3" value="" style="endArrow=classic;html=1;rounded=0;strokeWidth=2;strokeColor=#666666;" parent="1" edge="1">
                    <mxGeometry width="50" height="50" relative="1" as="geometry">
                        <mxPoint x="400" y="480" as="sourcePoint"/>
                        <mxPoint x="400" y="520" as="targetPoint"/>
                    </mxGeometry>
                </mxCell>
                <mxCell id="flow4" value="" style="endArrow=classic;startArrow=classic;html=1;rounded=0;strokeWidth=2;strokeColor=#ff6b35;" parent="1" edge="1">
                    <mxGeometry width="50" height="50" relative="1" as="geometry">
                        <mxPoint x="700" y="480" as="sourcePoint"/>
                        <mxPoint x="700" y="520" as="targetPoint"/>
                    </mxGeometry>
                </mxCell>
                <mxCell id="flow_label1" value="信息流入" style="text;html=1;strokeColor=none;fillColor=none;align=center;verticalAlign=middle;whiteSpace=wrap;rounded=0;fontSize=10;fontColor=#666666;" parent="1" vertex="1">
                    <mxGeometry x="830" y="170" width="60" height="20" as="geometry"/>
                </mxCell>
                <mxCell id="flow_label2" value="编码存储" style="text;html=1;strokeColor=none;fillColor=none;align=center;verticalAlign=middle;whiteSpace=wrap;rounded=0;fontSize=10;fontColor=#666666;" parent="1" vertex="1">
                    <mxGeometry x="410" y="490" width="60" height="20" as="geometry"/>
                </mxCell>
                <mxCell id="flow_label3" value="检索调用" style="text;html=1;strokeColor=none;fillColor=none;align=center;verticalAlign=middle;whiteSpace=wrap;rounded=0;fontSize=10;fontColor=#ff6b35;" parent="1" vertex="1">
                    <mxGeometry x="710" y="490" width="60" height="20" as="geometry"/>
                </mxCell>
                <mxCell id="system_features" value="" style="text;html=1;strokeColor=#82b366;fillColor=#d5e8d4;align=left;verticalAlign=top;whiteSpace=wrap;rounded=1;fontSize=12;fontColor=#2d7600;fontStyle=1;" parent="1" vertex="1">
                    <mxGeometry x="80" y="980" width="500" height="120" as="geometry"/>
                </mxCell>
                <mxCell id="tech_implementation" value="" style="text;html=1;strokeColor=#d6b656;fillColor=#fff2cc;align=left;verticalAlign=top;whiteSpace=wrap;rounded=1;fontSize=12;fontColor=#bf6900;fontStyle=1;" parent="1" vertex="1">
                    <mxGeometry x="610" y="978" width="500" height="120" as="geometry"/>
                </mxCell>
                <mxCell id="application_value" value="" style="text;html=1;strokeColor=#b85450;fillColor=#f8cecc;align=left;verticalAlign=top;whiteSpace=wrap;rounded=1;fontSize=12;fontColor=#a50040;fontStyle=1;" parent="1" vertex="1">
                    <mxGeometry x="1160" y="980" width="414" height="120" as="geometry"/>
                </mxCell>
                <mxCell id="2" value="&lt;span style=&quot;color: rgb(191, 105, 0); font-weight: 700;&quot;&gt;关键技术实现：&lt;/span&gt;&lt;br style=&quot;font-weight: 700;&quot;&gt;&lt;span style=&quot;color: rgb(191, 105, 0); font-weight: 700;&quot;&gt;• 向量数据库 (Vector DB) - 语义检索&lt;/span&gt;&lt;br style=&quot;font-weight: 700;&quot;&gt;&lt;span style=&quot;color: rgb(191, 105, 0); font-weight: 700;&quot;&gt;• 知识图谱 (Knowledge Graph) - 逻辑推理&lt;/span&gt;&lt;br style=&quot;font-weight: 700;&quot;&gt;&lt;span style=&quot;color: rgb(191, 105, 0); font-weight: 700;&quot;&gt;• 消息队列 (Message Queue) - 高通量缓冲&lt;/span&gt;&lt;br style=&quot;font-weight: 700;&quot;&gt;&lt;span style=&quot;color: rgb(191, 105, 0); font-weight: 700;&quot;&gt;• LLM驱动的智能路由与合成&lt;/span&gt;&lt;br style=&quot;font-weight: 700;&quot;&gt;&lt;span style=&quot;color: rgb(191, 105, 0); font-weight: 700;&quot;&gt;• RRIF多维度评分算法&lt;/span&gt;" style="text;html=1;align=left;verticalAlign=middle;whiteSpace=wrap;rounded=0;" vertex="1" parent="1">
                    <mxGeometry x="760" y="1023" width="281" height="30" as="geometry"/>
                </mxCell>
                <mxCell id="3" value="&lt;span style=&quot;color: rgb(165, 0, 64); font-weight: 700;&quot;&gt;构建目标：&quot;顶级&amp;amp;永久存活&quot;智能体&lt;/span&gt;&lt;br style=&quot;font-weight: 700;&quot;&gt;&lt;span style=&quot;color: rgb(165, 0, 64); font-weight: 700;&quot;&gt;• 具备持续学习和自我进化能力&lt;/span&gt;&lt;br style=&quot;font-weight: 700;&quot;&gt;&lt;span style=&quot;color: rgb(165, 0, 64); font-weight: 700;&quot;&gt;• 保持长期记忆的连贯性和可靠性&lt;/span&gt;&lt;br style=&quot;font-weight: 700;&quot;&gt;&lt;span style=&quot;color: rgb(165, 0, 64); font-weight: 700;&quot;&gt;• 支持复杂的认知推理和决策&lt;/span&gt;&lt;br style=&quot;font-weight: 700;&quot;&gt;&lt;span style=&quot;color: rgb(165, 0, 64); font-weight: 700;&quot;&gt;• 实现真正的个性化和上下文感知&lt;/span&gt;" style="text;html=1;align=left;verticalAlign=middle;whiteSpace=wrap;rounded=0;" vertex="1" parent="1">
                    <mxGeometry x="1254.5" y="1023" width="241" height="30" as="geometry"/>
                </mxCell>
                <mxCell id="4" value="&lt;span style=&quot;color: rgb(45, 118, 0); font-weight: 700;&quot;&gt;系统核心特征：&lt;/span&gt;&lt;br style=&quot;font-weight: 700;&quot;&gt;&lt;span style=&quot;color: rgb(45, 118, 0); font-weight: 700;&quot;&gt;✓ 分层架构 - 模拟人类记忆多样性&lt;/span&gt;&lt;br style=&quot;font-weight: 700;&quot;&gt;&lt;span style=&quot;color: rgb(45, 118, 0); font-weight: 700;&quot;&gt;✓ 动态流动 - 信息在层次间智能转化&lt;/span&gt;&lt;br style=&quot;font-weight: 700;&quot;&gt;&lt;span style=&quot;color: rgb(45, 118, 0); font-weight: 700;&quot;&gt;✓ 主动遗忘 - 保持系统高效健康&lt;/span&gt;&lt;br style=&quot;font-weight: 700;&quot;&gt;&lt;span style=&quot;color: rgb(45, 118, 0); font-weight: 700;&quot;&gt;✓ 自我整合 - 类似睡眠的后台整理机制&lt;/span&gt;" style="text;html=1;align=left;verticalAlign=middle;whiteSpace=wrap;rounded=0;" vertex="1" parent="1">
                    <mxGeometry x="224" y="1023" width="256" height="30" as="geometry"/>
                </mxCell>
            </root>
        </mxGraphModel>
    </diagram>
</mxfile>